# xmcd
#
# Track frame offsets: 
#        150
#        15488
#        31690
#        49549
#        69708
#        88340
#        106201
#        123805
#        143346
#        163282
#        180465
#        198521
#        215180
#        234622
#        252569
#        274290
#        290883
#        308216
#
# Disc length: 4327 seconds
#
# Revision: 1
# Processed by: cddbd v1.5.2PL0 Copyright (c) Steve Scherf et al.
# Submitted via: ExactAudioCopy v1.3
#
DISCID=0d10e512
DTITLE=Various Artist - Black MAGIC - Schmuse Soul Hits Vol. 1
DYEAR=1997
DGENRE=Soul
TTITLE0=Lutricia McNeal - Ain't That Just The Way
TTITLE1=Down Low - Hit Me Right
TTITLE2=Rappers Against Racism - I Want To Know What Love Is
TTITLE3=Lisa Stansfield - All Around The World
TTITLE4=Soultains - I Heard It Through The Grapewine
TTITLE5=La Bouche - Fallin' In Love
TTITLE6=Sai - Human
TTITLE7=Milli Vanilli - Girl I'm Gonna Miss You
TTITLE8=Alexander O'Neal - Let's Get Together
TTITLE9=Hoodys - Self Control
TTITLE10=Flip Da Scrip - I Never Told You
TTITLE11=Teeko X. Feat. Rod D. - Killing Me Softly
TTITLE12=Dionne Warwick - Heartbreaker
TTITLE13=Classical Leader - Why You Wanna Trip On Me
TTITLE14=Jermaine Jackson Feat. The Jacksons - Do What You Do
TTITLE15=Poetry 'N' Motion - Romeo and Juliet
TTITLE16=The Pointer Sisters - Slow Hand
TTITLE17=Michelle Gayle - Sweetness
EXTD=
EXTT0=
EXTT1=
EXTT2=
EXTT3=
EXTT4=
EXTT5=
EXTT6=
EXTT7=
EXTT8=
EXTT9=
EXTT10=
EXTT11=
EXTT12=
EXTT13=
EXTT14=
EXTT15=
EXTT16=
EXTT17=
PLAYORDER=
